<svg width="24" height="24" viewBox="0 0 24 24" fill="none" xmlns="http://www.w3.org/2000/svg">
<rect width="24" height="24" rx="12" fill="#FFCAB9"/>
<path d="M2.72937 16.4046C2.72937 16.2332 2.99098 15.5927 3.51419 14.4832C4.0374 13.3736 4.62827 12.1152 5.28679 10.7079C5.95433 9.29167 6.40538 8.26329 6.63992 7.62281L6.88348 6.95978C6.81132 6.83349 6.63541 6.60345 6.35576 6.26968C6.68051 6.16143 6.96016 6.10731 7.1947 6.10731C7.43827 6.10731 7.63672 6.12535 7.79008 6.16143C7.95245 6.19751 8.09228 6.26066 8.20955 6.35087C8.33584 6.43206 8.44409 6.51775 8.5343 6.60796C8.63353 6.69817 8.72374 6.83349 8.80493 7.0139C8.88611 7.1853 8.95377 7.34316 9.0079 7.4875C9.06202 7.62281 9.12066 7.81676 9.1838 8.06934C9.25597 8.32193 9.3101 8.54294 9.34618 8.73238C9.39128 8.91279 9.44541 9.16989 9.50855 9.50366C9.58072 9.82841 9.65289 10.1441 9.72505 10.4509C9.79722 10.7576 9.92351 11.3439 10.1039 12.2099C10.2843 13.0669 10.4242 13.7119 10.5234 14.1449C10.6317 14.5689 10.7805 15.047 10.9699 15.5792C11.1684 16.1114 11.3759 16.5309 11.5924 16.8376C11.0692 17.0902 10.6452 17.2165 10.3204 17.2165C9.99568 17.2165 9.75663 17.1353 9.60327 16.9729C9.44992 16.8015 9.31912 16.549 9.21087 16.2152C9.10262 15.8724 8.89062 14.9613 8.57489 13.4819C8.36741 13.6623 8.02913 13.7615 7.56005 13.7796L5.2462 13.8607C4.69592 15.2048 4.28998 16.4001 4.02838 17.4465C3.16238 17.1398 2.72937 16.7925 2.72937 16.4046ZM7.50592 8.75944C7.37963 9.04811 7.09998 9.66604 6.66698 10.6132C6.243 11.5514 5.91374 12.3001 5.6792 12.8594H8.45311C8.02913 10.9109 7.7134 9.54426 7.50592 8.75944ZM11.8837 14.2802C12.0732 13.0083 12.2175 11.7859 12.3167 10.6132C12.425 9.44051 12.4791 8.37605 12.4791 7.41984C12.4791 6.46363 12.416 5.83668 12.2897 5.53899C13.2549 5.79158 13.8593 6.18849 14.1029 6.72974C14.7975 6.34185 15.5327 6.1479 16.3085 6.1479C17.0842 6.1479 17.7157 6.36891 18.2028 6.81093C18.699 7.24393 18.9471 7.77617 18.9471 8.40763C18.9471 9.03007 18.7215 9.61191 18.2705 10.1532C17.8194 10.6854 17.2015 11.0823 16.4167 11.3439C17.0482 11.4792 17.6255 11.7859 18.1487 12.264C18.6809 12.7331 18.9471 13.315 18.9471 14.0096C18.9471 15.074 18.5501 15.8949 17.7563 16.4723C16.9715 17.0406 15.9747 17.3248 14.7659 17.3248C13.5661 17.3248 12.5062 16.9774 11.586 16.2828C11.5951 16.2107 11.6943 15.5431 11.8837 14.2802ZM17.0391 8.71885C17.0391 8.31291 16.9129 7.97462 16.6603 7.704C16.4077 7.42435 16.0514 7.28453 15.5913 7.28453C15.1312 7.28453 14.6892 7.37925 14.2652 7.56869C14.2652 8.11896 14.1434 9.50366 13.8999 11.7228C13.6653 13.9419 13.5481 15.3627 13.5481 15.9852C13.945 16.1475 14.3284 16.2287 14.6982 16.2287C15.3387 16.2287 15.8664 16.0167 16.2814 15.5927C16.6964 15.1688 16.9038 14.6365 16.9038 13.9961C16.9038 13.3556 16.6873 12.8233 16.2543 12.3994C15.8213 11.9664 15.2169 11.7318 14.4411 11.6957L14.4005 11.2086C15.2305 11.0913 15.8755 10.7891 16.3355 10.302C16.8046 9.80586 17.0391 9.27814 17.0391 8.71885Z" fill="white"/>
</svg>
